<?xml version="1.0" standalone="no"?>
<!DOCTYPE svg PUBLIC "-//W3C//DTD SVG 20010904//EN"
 "http://www.w3.org/TR/2001/REC-SVG-20010904/DTD/svg10.dtd">
<svg version="1.0" xmlns="http://www.w3.org/2000/svg"
 width="128.000000pt" height="128.000000pt" viewBox="0 0 128.000000 128.000000"
 preserveAspectRatio="xMidYMid meet">

<g transform="translate(0.000000,128.000000) scale(0.100000,-0.100000)"
fill="#000000" stroke="none">
<path d="M501 1265 c-178 -39 -348 -172 -429 -336 -127 -256 -81 -540 118
-739 251 -252 649 -252 900 0 252 251 252 649 0 900 -155 156 -375 221 -589
175z m245 -76 c98 -17 213 -79 288 -155 271 -270 195 -728 -148 -894 -480
-232 -978 266 -746 746 109 226 355 349 606 303z"/>
<path d="M416 864 c-9 -8 -16 -21 -16 -27 0 -6 42 -53 92 -104 l93 -93 -93
-93 c-91 -92 -103 -112 -80 -135 23 -23 43 -11 135 80 l93 93 94 -94 c75 -75
98 -92 114 -87 12 4 24 16 28 28 5 16 -12 39 -87 114 l-94 94 93 93 c91 92
103 112 80 135 -23 23 -43 11 -135 -80 l-93 -93 -93 93 c-51 50 -98 92 -104
92 -6 0 -19 -7 -27 -16z"/>
</g>
</svg>
